<?xml version="1.0" encoding="UTF-8" standalone="no"?><!DOCTYPE svg PUBLIC "-//W3C//DTD SVG 1.1//EN" "http://www.w3.org/Graphics/SVG/1.1/DTD/svg11.dtd"><svg width="100%" height="100%" viewBox="0 0 5559 5431" version="1.1" xmlns="http://www.w3.org/2000/svg" xmlns:xlink="http://www.w3.org/1999/xlink" xml:space="preserve" style="fill-rule:evenodd;clip-rule:evenodd;stroke-linejoin:round;stroke-miterlimit:2;"><rect id="Artboard1" x="0" y="0" width="5558.33" height="5430.95" style="fill:none;"/><circle cx="2779.17" cy="2715.48" r="2500" style="fill:#cc1417;"/><path d="M2779.17,5215.48c1380.83,0 2500,-1119.17 2500,-2500l-5000,0c-0,1380.83 1119.17,2500 2500,2500Z" style="fill:#fff;fill-rule:nonzero;"/><path d="M5361.25,2632.14c-10,-319.167 -77.917,-629.167 -201.667,-922.083c-130,-307.5 -316.25,-583.75 -553.75,-821.25c-237.083,-237.084 -513.333,-423.334 -821.25,-553.75c-318.333,-134.584 -656.666,-202.917 -1005.42,-202.917c-348.75,0 -687.084,68.333 -1005.42,202.917c-307.5,130 -583.75,316.25 -821.25,553.75c-237.083,237.083 -423.333,513.333 -553.75,821.25c-123.75,292.916 -191.667,602.916 -201.667,922.083l-1.25,0l0,83.333c0,348.75 68.334,687.084 202.917,1005.42c130,307.5 316.25,583.75 553.75,821.25c237.083,237.083 513.333,423.333 821.25,553.75c318.333,134.583 656.667,202.917 1005.42,202.917c348.75,-0 687.083,-68.334 1005.42,-202.917c307.5,-130 583.75,-316.25 821.25,-553.75c237.5,-237.5 423.334,-513.333 553.75,-821.25c134.584,-318.333 202.917,-656.667 202.917,-1005.42l0,-83.333l-1.25,0Zm-4808.75,-857.5c121.667,-287.917 295.833,-546.25 517.917,-768.333c222.083,-222.084 480.416,-396.25 768.333,-517.917c297.5,-125.833 614.167,-189.583 940.417,-189.583c326.25,-0 642.916,63.75 940.833,190c287.917,121.666 546.25,295.833 768.333,517.916c222.084,222.084 396.25,480.417 517.917,768.334c115.417,272.5 178.333,560.416 188.333,857.5l-4830.83,-0c10,-297.084 73.333,-585.417 188.75,-857.917Zm3935.42,2649.58c-222.084,222.084 -480.417,396.25 -768.334,517.917c-297.916,125.833 -614.166,190 -940.833,190c-326.667,0 -642.917,-63.75 -940.833,-190c-287.917,-121.667 -546.25,-295.833 -768.334,-517.917c-222.083,-222.083 -396.25,-480.416 -517.916,-768.333c-3.75,-8.75 -7.5,-17.917 -11.25,-26.667c-1.25,-2.916 -2.5,-5.833 -3.75,-8.75c-2.5,-5.833 -5,-12.083 -7.084,-17.916c-1.25,-3.75 -2.916,-7.084 -4.166,-10.834l-6.25,-16.25c-1.667,-3.75 -2.917,-7.5 -4.167,-11.666c-2.083,-5.417 -3.75,-10.417 -5.833,-15.834c-1.667,-4.166 -2.917,-7.916 -4.167,-12.083c-1.667,-5 -3.75,-10.417 -5.417,-15.417c-1.25,-4.166 -2.916,-7.916 -4.166,-12.083c-1.667,-5 -3.334,-10 -5.417,-15.417c-1.25,-4.166 -2.917,-8.333 -4.167,-12.083c-1.666,-5 -3.333,-10 -5,-15.417c-1.25,-4.166 -2.5,-8.333 -4.166,-12.083c-1.667,-5 -3.334,-10.417 -5,-15.417c-1.25,-4.166 -2.5,-7.916 -3.75,-12.083l-5,-16.25c-1.25,-3.75 -2.5,-7.5 -3.334,-11.667c-1.666,-5.833 -3.333,-12.083 -5,-17.916c-0.833,-3.334 -2.083,-6.667 -2.916,-10l-7.5,-27.5c-0.834,-2.5 -1.25,-5.417 -2.084,-7.917l-5,-20c-0.833,-3.75 -2.083,-7.917 -2.916,-11.667c-1.25,-5.416 -2.917,-10.833 -4.167,-16.25c-0.833,-4.166 -2.083,-8.333 -2.917,-12.5c-1.25,-5 -2.5,-10.416 -3.75,-15.416c-0.833,-4.167 -2.083,-8.75 -2.916,-12.917c-1.25,-5 -2.084,-10 -3.334,-15c-0.833,-4.583 -2.083,-8.75 -2.916,-13.333c-1.25,-5 -2.084,-10 -3.334,-15c-0.833,-4.584 -1.666,-8.75 -2.5,-13.334c-0.833,-5 -2.083,-10 -2.916,-15c-0.834,-4.583 -1.667,-8.75 -2.5,-13.333c-0.834,-5 -1.667,-10 -2.917,-15c-0.833,-4.583 -1.667,-8.75 -2.5,-13.333c-0.833,-5 -1.667,-10.417 -2.5,-15.417c-0.833,-4.167 -1.25,-8.75 -2.083,-12.917l-2.5,-16.25c-0.834,-4.166 -1.25,-7.916 -2.084,-12.083l-2.5,-18.75l-1.25,-10c-1.25,-9.583 -2.5,-18.75 -3.75,-28.333l-1.25,-10c-0.833,-6.25 -1.666,-12.5 -2.083,-18.334c-0.417,-4.166 -0.833,-8.333 -1.25,-12.083c-0.417,-5.417 -1.25,-11.25 -1.667,-16.667c-0.416,-4.166 -0.833,-8.333 -1.25,-12.916c-0.416,-5.417 -0.833,-10.834 -1.666,-16.25c-0.417,-4.167 -0.834,-8.75 -1.25,-12.917l-1.25,-16.25c-0.417,-4.167 -0.834,-8.75 -0.834,-12.917l-1.25,-16.25c-0.416,-4.166 -0.416,-8.75 -0.833,-12.916c-0.417,-5.417 -0.417,-10.834 -0.833,-16.25c-0.417,-4.167 -0.417,-8.75 -0.834,-12.917c-0.416,-5.417 -0.416,-11.25 -0.833,-16.667c0,-4.166 -0.417,-8.333 -0.417,-12.5l0,-4.166l4830.42,-0l0,4.166c0,4.167 -0.417,8.334 -0.417,12.5c-0.416,5.417 -0.416,11.25 -0.833,16.667c0,4.167 -0.417,8.75 -0.833,12.917c-0.417,5.416 -0.417,10.833 -0.834,16.25c-0.416,4.166 -0.416,8.75 -0.833,12.916l-1.25,16.25c-0.417,4.167 -0.417,8.75 -0.833,12.917l-1.25,16.25c-0.417,4.167 -0.834,8.75 -1.25,12.917c-0.417,5.416 -0.834,10.833 -1.667,16.25l-1.25,12.5c-0.417,5.833 -1.25,11.25 -1.667,17.083c-0.416,3.75 -0.833,7.917 -1.25,11.667c-0.833,6.25 -1.666,12.916 -2.083,19.166c-0.417,3.334 -0.833,6.25 -1.25,9.584c-1.25,9.583 -2.5,18.75 -3.75,28.333l-1.25,8.75c-0.833,6.667 -1.667,13.333 -2.917,19.583c-0.416,3.75 -1.25,7.917 -1.666,11.667c-0.834,5.417 -1.667,11.25 -2.5,16.667c-0.834,4.166 -1.25,8.333 -2.084,12.5c-0.833,5.416 -1.666,10.416 -2.5,15.833c-0.833,4.167 -1.666,8.75 -2.5,12.917c-0.833,5 -1.666,10.416 -2.916,15.416c-0.834,4.167 -1.667,8.75 -2.5,12.917c-0.834,5 -2.084,10.417 -2.917,15.417c-0.833,4.166 -1.667,8.75 -2.5,12.916c-1.25,5 -2.083,10 -3.333,15.417c-0.834,4.167 -1.667,8.75 -2.917,12.917c-1.25,5 -2.083,10.416 -3.333,15.416c-0.834,4.167 -2.084,8.334 -2.917,12.917c-1.25,5.417 -2.5,10.417 -3.75,15.833c-0.833,4.167 -2.083,8.334 -2.917,12.084c-1.25,5.416 -2.916,11.25 -4.166,16.666c-0.834,3.75 -1.667,7.5 -2.917,11.25c-1.667,6.667 -3.333,13.75 -5.417,20.417c-0.833,2.5 -1.25,5 -2.083,7.5l-7.5,27.5c-0.833,3.333 -1.667,6.25 -2.917,9.583c-1.666,6.25 -3.333,12.084 -5.416,18.334c-1.25,3.75 -2.084,7.5 -3.334,11.25l-5,16.25c-1.25,3.75 -2.5,7.916 -3.75,11.666c-1.666,5.417 -3.333,10.417 -5,15.834c-1.25,4.166 -2.5,7.916 -3.75,12.083c-1.666,5 -3.333,10.417 -5,15.417c-1.25,4.166 -2.916,7.916 -4.166,12.083c-1.667,5 -3.334,10.417 -5.417,15.417c-1.25,4.166 -2.917,7.916 -4.167,12.083c-1.666,5 -3.75,10.417 -5.416,15.417c-1.25,4.166 -2.917,7.916 -4.167,12.083c-2.083,5.417 -3.75,10.417 -5.833,15.833c-1.25,3.75 -2.917,7.5 -4.167,11.667l-6.25,16.25c-1.25,3.75 -2.917,7.083 -4.167,10.833c-2.5,5.834 -5,12.084 -7.083,17.917c-1.25,2.917 -2.5,5.833 -3.75,8.75c-3.75,9.167 -7.5,17.917 -11.25,26.667c-120.833,288.75 -295,547.083 -517.083,769.166Z" style="fill-rule:nonzero;"/><path d="M2779.17,3757.14c-278.334,0 -540,-108.333 -736.667,-305c-196.667,-196.667 -305,-458.333 -305,-736.667c0,-278.333 108.333,-540 305,-736.666c196.667,-196.667 458.333,-305 736.667,-305c278.333,-0 540,108.333 736.666,305c196.667,196.666 305,458.333 305,736.666c0,278.334 -108.333,540 -305,736.667c-196.666,196.667 -458.333,305 -736.666,305Z" style="fill:#fff;fill-rule:nonzero;"/><path d="M2779.17,3757.14c-278.334,0 -540,-108.333 -736.667,-305c-196.667,-196.667 -305,-458.333 -305,-736.667c0,-278.333 108.333,-540 305,-736.666c196.667,-196.667 458.333,-305 736.667,-305c278.333,-0 540,108.333 736.666,305c196.667,196.666 305,458.333 305,736.666c0,278.334 -108.333,540 -305,736.667c-196.666,196.667 -458.333,305 -736.666,305Z" style="fill:#fff;fill-rule:nonzero;"/><path d="M2779.17,3757.14c-278.334,0 -540,-108.333 -736.667,-305c-196.667,-196.667 -305,-458.333 -305,-736.667c0,-278.333 108.333,-540 305,-736.666c196.667,-196.667 458.333,-305 736.667,-305c278.333,-0 540,108.333 736.666,305c196.667,196.666 305,458.333 305,736.666c0,278.334 -108.333,540 -305,736.667c-196.666,196.667 -458.333,305 -736.666,305Z" style="fill:#fff;fill-rule:nonzero;"/><path d="M2779.17,3840.48c-300.417,0 -582.917,-117.083 -795.417,-329.583c-212.5,-212.5 -329.583,-495 -329.583,-795.417c-0,-300.416 117.083,-582.916 329.583,-795.416c212.5,-212.5 495,-329.584 795.417,-329.584c300.416,0 582.916,117.084 795.416,329.584c212.5,212.5 329.584,495 329.584,795.416c-0,300.417 -117.084,582.917 -329.584,795.417c-212.5,212.5 -495,329.583 -795.416,329.583Zm-0,-2083.33c-255.834,0 -496.667,99.583 -677.5,280.833c-181.25,180.834 -280.834,421.667 -280.834,677.5c0,255.834 99.584,496.667 280.834,677.5c180.833,180.834 421.666,280.834 677.5,280.834c255.833,-0 496.666,-99.584 677.5,-280.834c180.833,-180.833 280.833,-421.666 280.833,-677.5c0,-255.833 -99.583,-496.666 -280.833,-677.5c-180.834,-181.25 -421.667,-280.833 -677.5,-280.833Z" style="fill-rule:nonzero;"/></svg>